<svg xmlns="http://www.w3.org/2000/svg" version="1.1" viewBox="0.00 0.00 685.00 1000.00" width="685.00" height="1000.00">
<g stroke-width="2.00" fill="none" stroke-linecap="butt">
<path stroke="#142660" d="&#10;  M 357.07 986.29&#10;  Q 357.05 986.17 357.02 986.05"/>
<path stroke="#142660" d="&#10;  M 356.93 985.79&#10;  Q 356.08 985.39 355.12 985.66"/>
</g>
<path fill="#14348b" d="&#10;  M 450.81 538.18&#10;  A 0.20 0.19 -59.5 0 0 450.47 538.27&#10;  Q 442.35 579.07 421.03 615.55&#10;  Q 407.94 637.95 390.70 658.80&#10;  Q 384.61 666.17 376.64 670.43&#10;  C 344.37 687.69 311.71 623.05 301.91 602.02&#10;  C 292.63 582.08 284.35 561.88 277.40 540.82&#10;  Q 276.62 538.46 276.13 540.90&#10;  Q 269.19 575.41 253.19 605.02&#10;  Q 243.88 622.23 234.53 637.96&#10;  Q 227.05 650.54 218.82 659.57&#10;  Q 215.40 663.32 211.06 666.22&#10;  C 202.33 672.06 190.94 670.64 182.25 665.01&#10;  C 177.52 661.94 173.10 658.26 169.30 654.10&#10;  C 153.97 637.33 141.97 615.93 131.70 595.76&#10;  C 124.14 580.90 116.58 565.61 109.72 550.28&#10;  Q 94.84 517.03 80.00 484.14&#10;  C 67.83 457.18 54.89 429.98 40.61 403.50&#10;  Q 29.43 382.75 17.23 365.89&#10;  Q 9.93 355.79 6.89 349.54&#10;  Q -7.27 320.42 10.62 290.11&#10;  C 14.95 282.78 19.58 275.76 24.56 269.27&#10;  Q 38.55 250.98 51.11 233.30&#10;  Q 56.81 225.28 63.02 217.20&#10;  Q 84.12 189.77 104.81 163.24&#10;  Q 127.66 133.93 138.63 117.09&#10;  Q 149.02 101.15 160.43 81.62&#10;  Q 167.24 69.98 172.22 59.51&#10;  C 179.70 43.79 188.52 30.30 202.53 20.41&#10;  Q 218.92 8.82 238.81 7.64&#10;  C 268.81 5.87 298.66 23.01 314.82 47.66&#10;  A 0.74 0.74 0.0 0 0 316.04 47.69&#10;  Q 340.44 14.21 381.41 3.54&#10;  Q 389.89 1.33 399.78 0.68&#10;  Q 430.11 -1.33 455.65 12.24&#10;  Q 470.76 20.27 481.93 31.50&#10;  Q 485.71 35.29 488.37 39.88&#10;  Q 533.94 118.61 579.89 196.60&#10;  Q 584.91 205.11 589.96 213.94&#10;  Q 632.96 289.12 669.00 349.01&#10;  C 679.17 365.92 685.45 386.96 684.53 406.71&#10;  C 683.65 425.51 679.06 443.45 672.97 462.00&#10;  Q 670.14 470.60 665.89 480.53&#10;  Q 655.71 504.28 645.06 527.83&#10;  Q 633.97 552.36 623.70 570.08&#10;  Q 613.73 587.30 601.50 606.01&#10;  C 590.38 623.00 579.68 640.15 566.67 656.37&#10;  C 560.36 664.22 552.05 672.69 542.32 675.15&#10;  C 530.80 678.07 518.44 670.65 510.00 662.33&#10;  C 497.49 649.98 487.96 634.02 480.11 617.95&#10;  C 467.91 592.97 458.60 566.41 451.33 539.19&#10;  Q 451.18 538.63 450.81 538.18&#10;  Z&#10;  M 70.79 273.69&#10;  C 62.01 281.81 52.55 290.08 48.28 301.76&#10;  C 42.93 316.39 44.18 330.15 50.58 343.99&#10;  C 56.43 356.64 63.75 368.07 71.48 380.24&#10;  C 86.43 403.79 101.38 428.87 112.06 447.18&#10;  C 130.54 478.84 145.99 508.80 161.80 539.66&#10;  Q 166.27 548.39 171.76 557.23&#10;  C 176.42 564.73 182.32 572.37 192.10 570.59&#10;  C 205.37 568.18 215.98 550.69 222.05 539.80&#10;  Q 229.86 525.78 235.88 512.65&#10;  Q 260.82 458.31 279.81 419.39&#10;  Q 289.74 399.04 302.74 375.05&#10;  Q 310.24 361.23 317.37 349.41&#10;  Q 325.59 335.80 338.46 324.11&#10;  C 364.21 300.72 396.97 294.40 431.01 299.17&#10;  A 0.45 0.45 0.0 0 0 431.47 298.50&#10;  C 406.86 254.24 380.63 208.28 354.71 161.89&#10;  Q 350.07 153.58 344.81 144.53&#10;  Q 327.47 114.66 310.50 84.12&#10;  C 309.77 82.79 308.79 81.59 307.63 80.61&#10;  C 286.81 63.16 255.07 45.12 227.26 57.09&#10;  C 211.34 63.93 200.19 78.81 190.72 94.19&#10;  Q 186.10 101.70 180.64 111.39&#10;  Q 162.10 144.28 145.06 177.00&#10;  Q 139.93 186.85 135.48 194.39&#10;  Q 113.23 232.02 82.31 262.88&#10;  Q 80.10 265.08 70.79 273.69&#10;  Z&#10;  M 564.85 299.33&#10;  Q 567.47 298.93 566.21 296.60&#10;  Q 552.37 270.86 538.83 246.21&#10;  Q 534.35 238.06 529.37 228.62&#10;  Q 517.16 205.50 502.28 178.77&#10;  Q 475.65 130.93 444.94 73.83&#10;  Q 443.64 71.40 441.68 69.84&#10;  C 413.36 47.22 373.11 56.79 358.47 90.34&#10;  Q 355.63 96.84 353.55 102.97&#10;  Q 353.28 103.76 353.70 104.49&#10;  Q 382.07 153.99 410.62 203.64&#10;  C 417.80 216.12 425.61 228.83 432.47 241.48&#10;  Q 437.60 250.96 442.16 258.97&#10;  Q 466.38 301.57 490.58 343.41&#10;  A 0.38 0.38 0.0 0 0 491.23 343.43&#10;  Q 512.11 311.74 548.57 302.06&#10;  C 553.85 300.67 559.44 300.15 564.85 299.33&#10;  Z&#10;  M 535.89 567.12&#10;  Q 547.97 555.77 557.39 544.28&#10;  Q 597.70 495.05 615.08 435.43&#10;  Q 618.06 425.24 620.84 414.11&#10;  Q 623.35 404.07 621.82 394.66&#10;  C 619.93 383.04 613.42 369.90 603.75 362.51&#10;  C 585.47 348.55 561.45 352.90 545.92 368.36&#10;  C 544.96 369.33 544.32 370.46 543.64 371.63&#10;  C 525.05 403.49 506.50 434.65 487.74 466.65&#10;  C 485.84 469.90 483.73 473.07 482.12 476.39&#10;  A 1.90 1.89 43.1 0 0 482.18 478.18&#10;  C 496.95 504.08 511.63 531.25 526.93 555.77&#10;  C 529.50 559.89 531.03 564.14 534.96 567.17&#10;  A 0.73 0.71 -47.6 0 0 535.89 567.12&#10;  Z&#10;  M 361.54 565.33&#10;  A 0.53 0.53 0.0 0 0 362.33 565.36&#10;  C 364.02 563.59 365.96 562.16 367.70 560.37&#10;  Q 384.70 542.79 398.83 521.32&#10;  C 418.10 492.06 432.91 460.93 442.74 428.15&#10;  C 443.87 424.41 446.19 421.03 447.76 417.41&#10;  Q 455.30 399.95 447.26 382.15&#10;  C 437.64 360.82 415.36 349.57 392.45 356.84&#10;  C 386.13 358.84 375.48 363.41 372.03 369.51&#10;  C 364.01 383.67 350.90 407.48 339.33 427.74&#10;  Q 327.50 448.45 316.08 469.39&#10;  C 314.46 472.37 312.56 475.20 311.15 478.26&#10;  Q 310.89 478.83 311.19 479.36&#10;  C 313.04 482.62 315.16 485.80 316.99 489.11&#10;  Q 334.02 519.80 351.91 549.35&#10;  C 353.78 552.43 355.95 555.08 357.34 558.41&#10;  Q 358.91 562.19 361.54 565.33&#10;  Z"/>
<path fill="#131835" d="&#10;  M 241.46 804.61&#10;  L 240.89 814.99&#10;  A 1.35 1.35 0.0 0 0 241.52 816.20&#10;  L 249.34 821.06&#10;  Q 250.52 821.79 250.42 823.18&#10;  L 248.30 851.14&#10;  Q 248.21 852.37 247.21 851.66&#10;  Q 243.55 849.05 239.20 846.70&#10;  Q 238.23 846.18 238.15 847.28&#10;  L 233.83 903.84&#10;  A 1.06 1.05 -88.0 0 1 232.78 904.82&#10;  L 211.47 904.74&#10;  A 0.59 0.58 2.2 0 1 210.88 904.11&#10;  L 214.55 859.75&#10;  Q 214.73 857.58 213.33 859.25&#10;  C 208.82 864.61 203.95 868.81 197.33 871.46&#10;  Q 196.06 871.97 196.19 870.60&#10;  L 199.61 834.98&#10;  Q 199.68 834.32 200.24 833.97&#10;  C 209.75 828.04 215.05 815.92 217.63 805.09&#10;  A 0.67 0.67 0.0 0 0 216.97 804.26&#10;  L 204.37 804.35&#10;  Q 202.90 804.36 203.00 802.89&#10;  L 204.49 781.19&#10;  A 0.82 0.82 0.0 0 1 205.31 780.42&#10;  L 219.77 780.43&#10;  A 1.08 1.07 -88.0 0 0 220.84 779.43&#10;  L 222.26 759.73&#10;  A 1.01 1.01 0.0 0 1 223.28 758.79&#10;  L 244.75 758.81&#10;  A 0.42 0.42 0.0 0 1 245.17 759.27&#10;  L 243.60 779.48&#10;  Q 243.53 780.43 244.48 780.43&#10;  L 252.50 780.40&#10;  A 1.24 1.23 -88.0 0 1 253.73 781.72&#10;  L 252.25 803.21&#10;  Q 252.20 803.86 251.54 803.87&#10;  L 242.14 803.96&#10;  Q 241.50 803.97 241.46 804.61&#10;  Z"/>
<path fill="#131835" d="&#10;  M 432.40 826.74&#10;  Q 432.77 829.45 433.17 826.74&#10;  Q 434.62 816.80 435.83 806.06&#10;  Q 435.95 804.94 437.03 804.60&#10;  C 442.33 802.96 447.07 801.65 448.98 795.69&#10;  Q 450.50 790.96 451.11 785.32&#10;  A 0.57 0.57 0.0 0 0 450.54 784.69&#10;  L 442.91 784.74&#10;  A 0.78 0.76 -87.9 0 1 442.14 783.90&#10;  L 443.83 764.07&#10;  A 0.67 0.67 0.0 0 1 444.50 763.45&#10;  L 505.68 763.47&#10;  A 0.67 0.67 0.0 0 1 506.35 764.21&#10;  Q 503.51 792.57 501.31 818.44&#10;  C 500.86 823.84 497.53 828.53 491.75 828.62&#10;  Q 479.90 828.82 467.57 828.79&#10;  A 1.17 1.17 0.0 0 1 466.41 827.78&#10;  L 464.81 815.85&#10;  Q 464.55 813.96 463.49 815.55&#10;  C 456.65 825.71 445.54 829.86 433.59 829.49&#10;  C 432.00 829.44 430.81 829.86 429.27 829.86&#10;  Q 420.94 829.87 412.86 829.92&#10;  A 0.94 0.94 0.0 0 1 411.92 828.99&#10;  L 411.89 823.94&#10;  Q 411.88 823.21 411.17 823.34&#10;  C 396.33 825.96 382.27 828.60 366.84 829.87&#10;  A 0.33 0.33 0.0 0 1 366.48 829.50&#10;  L 368.91 807.68&#10;  Q 368.98 807.03 369.63 806.94&#10;  C 371.77 806.65 374.35 806.81 376.37 806.04&#10;  Q 376.98 805.81 377.04 805.16&#10;  L 380.59 765.76&#10;  Q 380.64 765.18 381.21 765.15&#10;  Q 402.56 764.06 423.00 761.59&#10;  Q 431.58 760.55 439.29 759.01&#10;  Q 440.46 758.77 440.37 759.97&#10;  L 438.67 780.79&#10;  Q 438.62 781.36 438.10 781.60&#10;  Q 436.45 782.33 434.63 782.61&#10;  Q 419.82 784.93 403.67 785.60&#10;  Q 402.82 785.64 402.74 786.48&#10;  L 401.34 801.52&#10;  A 1.00 0.99 -2.4 0 0 402.51 802.59&#10;  L 410.72 801.14&#10;  A 1.13 1.13 0.0 0 0 411.66 799.98&#10;  L 411.24 789.55&#10;  Q 411.19 788.27 412.47 788.28&#10;  L 429.68 788.44&#10;  A 0.75 0.74 87.0 0 1 430.42 789.11&#10;  Q 432.21 805.93 432.19 823.74&#10;  Q 432.19 825.21 432.40 826.74&#10;  Z&#10;  M 477.04 806.26&#10;  Q 480.62 805.81 481.03 802.39&#10;  Q 482.03 794.15 482.90 785.40&#10;  Q 482.97 784.69 482.26 784.69&#10;  L 472.48 784.71&#10;  Q 471.79 784.71 471.74 785.40&#10;  Q 470.87 796.26 468.01 805.84&#10;  Q 467.79 806.56 468.55 806.60&#10;  Q 472.76 806.79 477.04 806.26&#10;  Z"/>
<path fill="#131835" d="&#10;  M 272.28 852.78&#10;  Q 272.61 851.24 271.44 852.31&#10;  C 265.20 858.04 258.69 862.86 250.45 865.05&#10;  Q 249.42 865.32 249.51 864.26&#10;  Q 250.51 851.71 251.37 840.18&#10;  Q 251.54 837.87 252.19 835.55&#10;  A 1.20 1.19 0.8 0 1 253.04 834.73&#10;  Q 263.33 832.11 274.85 820.94&#10;  Q 275.85 819.97 275.94 818.68&#10;  Q 276.58 809.16 277.45 800.08&#10;  Q 279.46 779.12 280.71 760.77&#10;  Q 280.76 760.07 281.46 760.07&#10;  L 301.95 760.08&#10;  Q 302.52 760.08 302.50 760.65&#10;  Q 302.43 763.54 302.16 766.49&#10;  C 301.23 776.76 300.04 787.05 299.21 796.89&#10;  Q 296.30 831.34 294.00 849.01&#10;  Q 292.74 858.69 289.49 868.99&#10;  C 284.96 883.35 275.83 894.74 261.72 900.37&#10;  Q 252.64 903.99 243.18 905.23&#10;  A 0.65 0.65 0.0 0 1 242.45 904.52&#10;  Q 243.99 890.88 245.13 875.50&#10;  Q 245.28 873.53 247.29 873.25&#10;  C 259.51 871.51 269.42 866.12 272.28 852.78&#10;  Z"/>
<path fill="#131835" d="&#10;  M 324.12 853.85&#10;  Q 323.32 853.27 323.22 854.26&#10;  L 321.33 872.93&#10;  Q 320.85 877.72 325.66 877.70&#10;  L 344.72 877.64&#10;  A 0.94 0.93 -85.8 0 1 345.65 878.72&#10;  L 341.91 902.29&#10;  Q 341.72 903.46 340.53 903.45&#10;  Q 329.71 903.35 317.72 903.49&#10;  C 305.94 903.62 298.09 899.23 298.48 886.29&#10;  Q 298.62 881.99 299.03 877.76&#10;  Q 300.34 864.54 301.45 852.50&#10;  Q 305.66 806.62 310.00 760.75&#10;  Q 310.07 760.07 310.75 760.07&#10;  L 331.24 760.08&#10;  Q 331.86 760.08 331.81 760.70&#10;  L 325.97 823.37&#10;  Q 325.91 824.03 326.48 824.38&#10;  L 346.56 836.74&#10;  A 1.14 1.14 0.0 0 1 347.10 837.88&#10;  C 345.73 847.13 344.13 856.32 343.25 865.49&#10;  Q 343.06 867.53 341.39 866.33&#10;  L 324.12 853.85&#10;  Z"/>
<path fill="#131835" d="&#10;  M 89.20 814.11&#10;  Q 89.15 813.76 88.79 813.76&#10;  L 47.23 813.71&#10;  Q 46.49 813.71 46.56 812.96&#10;  L 48.92 789.94&#10;  Q 49.03 788.87 50.10 788.87&#10;  L 101.00 788.92&#10;  A 1.01 1.01 0.0 0 0 102.01 787.99&#10;  L 104.14 762.26&#10;  Q 104.19 761.71 104.75 761.71&#10;  L 128.74 761.67&#10;  Q 129.29 761.67 129.24 762.22&#10;  L 126.85 788.21&#10;  A 0.61 0.61 0.0 0 0 127.46 788.87&#10;  L 179.97 788.88&#10;  Q 181.12 788.88 181.00 790.03&#10;  Q 179.74 801.45 178.94 812.95&#10;  A 0.82 0.80 -87.7 0 1 178.14 813.70&#10;  L 134.20 813.75&#10;  A 0.88 0.87 80.4 0 0 133.38 814.91&#10;  C 140.63 836.24 156.76 850.01 177.37 858.41&#10;  A 1.43 1.43 0.0 0 1 178.25 859.89&#10;  L 174.86 889.79&#10;  A 0.85 0.84 -76.7 0 1 173.73 890.49&#10;  C 151.61 882.40 134.23 866.77 123.33 846.17&#10;  Q 123.04 845.62 122.52 845.23&#10;  A 0.34 0.33 -69.8 0 0 121.99 845.48&#10;  L 116.79 904.54&#10;  Q 116.74 905.08 116.20 905.08&#10;  L 92.02 905.10&#10;  Q 91.68 905.10 91.71 904.77&#10;  L 96.82 847.06&#10;  Q 97.02 844.89 95.86 846.74&#10;  C 82.78 867.62 61.24 885.46 36.87 892.15&#10;  A 0.42 0.41 -5.0 0 1 36.35 891.72&#10;  L 39.18 859.07&#10;  A 1.79 1.79 0.0 0 1 40.40 857.52&#10;  C 62.62 850.07 79.51 836.15 89.12 814.60&#10;  Q 89.24 814.35 89.20 814.11&#10;  Z"/>
<path fill="#131835" d="&#10;  M 602.09 828.06&#10;  Q 602.96 827.64 601.99 827.63&#10;  C 596.73 827.56 591.52 827.13 586.26 827.18&#10;  Q 572.38 827.29 557.98 827.27&#10;  A 0.63 0.62 -87.5 0 1 557.36 826.59&#10;  L 558.99 809.18&#10;  Q 559.09 808.11 560.16 808.11&#10;  L 646.32 808.12&#10;  A 0.94 0.94 0.0 0 0 647.25 807.29&#10;  L 647.77 802.56&#10;  A 0.98 0.97 3.2 0 0 646.80 801.48&#10;  L 557.48 801.47&#10;  Q 556.93 801.47 556.88 802.02&#10;  L 555.39 817.24&#10;  A 0.63 0.62 -86.9 0 1 554.77 817.80&#10;  L 534.05 817.80&#10;  Q 533.23 817.80 533.31 816.99&#10;  L 536.82 781.55&#10;  A 0.95 0.94 -87.0 0 1 537.76 780.70&#10;  L 560.26 780.69&#10;  A 0.71 0.70 87.4 0 0 560.96 779.92&#10;  Q 560.07 771.14 557.47 763.17&#10;  Q 557.24 762.47 557.98 762.47&#10;  L 580.44 762.45&#10;  A 0.78 0.78 0.0 0 1 581.17 762.95&#10;  Q 584.63 771.62 585.36 779.78&#10;  Q 585.45 780.80 586.47 780.79&#10;  L 594.51 780.67&#10;  A 0.78 0.78 0.0 0 0 595.28 779.81&#10;  Q 594.35 771.02 591.83 763.18&#10;  Q 591.64 762.59 592.26 762.58&#10;  Q 602.35 762.37 614.09 762.41&#10;  Q 614.93 762.41 615.44 763.08&#10;  Q 615.94 763.74 616.21 764.58&#10;  Q 619.06 773.39 619.79 780.30&#10;  A 0.53 0.52 85.9 0 0 620.33 780.78&#10;  L 624.55 780.65&#10;  Q 625.21 780.63 625.65 780.15&#10;  C 629.83 775.55 632.76 768.17 634.59 762.43&#10;  Q 634.78 761.81 635.43 761.81&#10;  L 660.98 761.70&#10;  Q 661.71 761.70 661.61 762.42&#10;  C 660.80 768.46 655.77 775.42 651.90 779.82&#10;  A 0.51 0.50 20.8 0 0 652.28 780.66&#10;  L 671.12 780.65&#10;  A 0.71 0.71 0.0 0 1 671.83 781.43&#10;  L 668.35 818.97&#10;  A 0.58 0.58 0.0 0 1 667.77 819.50&#10;  L 646.53 819.47&#10;  Q 645.79 819.46 645.88 818.72&#10;  L 646.89 810.92&#10;  Q 646.94 810.52 646.55 810.43&#10;  Q 646.40 810.40 646.26 810.51&#10;  A 0.98 0.93 -4.9 0 0 646.03 810.77&#10;  C 645.11 812.32 644.36 813.95 643.21 815.39&#10;  Q 637.58 822.43 632.69 827.35&#10;  Q 626.55 833.52 619.30 839.56&#10;  Q 618.08 840.58 619.67 840.57&#10;  L 665.55 840.53&#10;  A 0.95 0.94 -87.8 0 1 666.49 841.55&#10;  L 664.74 862.79&#10;  Q 664.66 863.68 663.78 863.68&#10;  L 614.26 863.65&#10;  Q 613.51 863.65 613.46 864.40&#10;  Q 612.65 877.76 612.04 889.92&#10;  Q 611.82 894.15 610.38 897.98&#10;  C 608.31 903.48 603.85 905.09 598.47 905.10&#10;  Q 578.91 905.11 561.15 905.07&#10;  A 1.12 1.10 85.4 0 1 560.06 904.13&#10;  L 555.92 878.15&#10;  Q 555.83 877.63 556.37 877.63&#10;  Q 567.65 877.59 579.51 877.64&#10;  C 582.26 877.65 585.97 877.75 586.35 874.11&#10;  Q 586.86 869.26 587.31 864.31&#10;  A 0.61 0.60 -87.4 0 0 586.71 863.65&#10;  L 528.97 863.66&#10;  A 0.42 0.41 -87.5 0 1 528.56 863.20&#10;  L 530.48 841.25&#10;  A 0.77 0.77 0.0 0 1 531.25 840.55&#10;  L 587.36 840.57&#10;  Q 589.06 840.57 589.22 838.88&#10;  L 589.61 834.79&#10;  Q 589.67 834.16 590.25 833.88&#10;  L 602.09 828.06&#10;  Z"/>
<path fill="#131835" d="&#10;  M 347.50 813.94&#10;  Q 346.89 817.43 346.31 820.81&#10;  Q 346.21 821.44 345.57 821.44&#10;  L 328.51 821.39&#10;  A 0.41 0.41 0.0 0 1 328.10 820.92&#10;  Q 329.24 813.25 330.62 806.04&#10;  C 332.49 796.23 333.41 786.57 334.24 776.54&#10;  A 1.10 1.10 0.0 0 1 335.34 775.54&#10;  L 351.71 775.53&#10;  A 0.56 0.56 0.0 0 1 352.27 776.13&#10;  Q 351.14 793.20 347.50 813.94&#10;  Z"/>
<rect fill="#131835" x="-8.82" y="-22.14" transform="translate(265.25,798.51) rotate(0.9)" width="17.64" height="44.28" rx="0.27"/>
<path fill="#131835" d="&#10;  M 369.78 904.98&#10;  A 0.09 0.08 -90.0 0 1 369.70 904.89&#10;  L 376.39 833.23&#10;  Q 376.44 832.71 376.96 832.71&#10;  L 495.80 832.69&#10;  A 0.75 0.74 -86.9 0 1 496.54 833.52&#10;  Q 493.89 859.46 491.44 888.10&#10;  C 490.58 898.10 485.81 905.12 474.96 905.10&#10;  Q 420.58 904.96 369.78 904.98&#10;  Z&#10;  M 399.09 851.35&#10;  A 0.73 0.73 0.0 0 0 398.37 852.01&#10;  L 397.72 858.57&#10;  A 0.73 0.73 0.0 0 0 398.45 859.37&#10;  L 421.74 859.38&#10;  A 0.73 0.73 0.0 0 0 422.46 858.72&#10;  L 423.10 852.16&#10;  A 0.73 0.73 0.0 0 0 422.38 851.36&#10;  L 399.09 851.35&#10;  Z&#10;  M 447.26 851.35&#10;  A 0.73 0.73 0.0 0 0 446.53 851.99&#10;  L 445.75 858.56&#10;  A 0.73 0.73 0.0 0 0 446.47 859.38&#10;  L 469.11 859.37&#10;  A 0.73 0.73 0.0 0 0 469.84 858.73&#10;  L 470.61 852.17&#10;  A 0.73 0.73 0.0 0 0 469.89 851.35&#10;  L 447.26 851.35&#10;  Z&#10;  M 419.61 883.52&#10;  A 0.70 0.70 0.0 0 0 420.30 882.89&#10;  L 421.03 875.61&#10;  A 0.70 0.70 0.0 0 0 420.34 874.84&#10;  L 396.72 874.78&#10;  A 0.70 0.70 0.0 0 0 396.02 875.41&#10;  L 395.29 882.71&#10;  A 0.70 0.70 0.0 0 0 395.98 883.48&#10;  L 419.61 883.52&#10;  Z&#10;  M 466.68 883.52&#10;  A 0.77 0.77 0.0 0 0 467.44 882.83&#10;  L 468.19 875.69&#10;  A 0.77 0.77 0.0 0 0 467.43 874.84&#10;  L 445.00 874.79&#10;  A 0.77 0.77 0.0 0 0 444.23 875.48&#10;  L 443.49 882.62&#10;  A 0.77 0.77 0.0 0 0 444.25 883.47&#10;  L 466.68 883.52&#10;  Z"/>
<path fill="#131835" d="&#10;  M 217.39 963.97&#10;  C 215.89 967.06 218.24 969.70 221.01 970.75&#10;  Q 225.02 972.27 228.45 974.20&#10;  C 234.61 977.67 235.18 984.18 233.55 990.42&#10;  C 231.29 999.13 222.80 999.18 215.57 999.01&#10;  C 208.44 998.85 200.74 992.57 202.49 984.67&#10;  Q 202.60 984.15 203.14 984.15&#10;  L 211.78 984.11&#10;  Q 212.45 984.11 212.64 984.75&#10;  L 213.34 987.21&#10;  A 2.36 2.35 4.3 0 0 214.63 988.70&#10;  Q 218.14 990.29 222.27 988.40&#10;  A 1.21 1.19 -2.7 0 0 222.89 987.73&#10;  C 224.57 983.10 217.87 980.70 214.47 979.29&#10;  C 208.87 976.95 205.77 972.89 206.38 966.75&#10;  Q 207.41 956.33 216.56 952.53&#10;  Q 221.72 950.39 226.77 952.06&#10;  Q 236.63 955.31 236.57 966.00&#10;  Q 236.56 966.90 235.67 966.91&#10;  L 227.31 967.00&#10;  Q 226.62 967.00 226.52 966.31&#10;  L 226.16 963.85&#10;  Q 226.07 963.25 225.59 962.89&#10;  C 223.25 961.17 218.90 960.85 217.39 963.97&#10;  Z"/>
<path fill="#131835" d="&#10;  M 503.28 974.83&#10;  A 0.96 0.95 47.9 0 0 503.21 976.34&#10;  Q 508.56 980.95 507.66 988.41&#10;  C 506.91 994.72 503.30 998.27 497.07 998.89&#10;  C 489.88 999.61 480.72 998.64 479.16 990.30&#10;  Q 477.37 980.71 484.84 975.96&#10;  A 0.91 0.90 52.5 0 0 485.02 974.58&#10;  Q 479.57 968.71 482.43 960.49&#10;  Q 485.56 951.48 495.28 951.57&#10;  Q 504.11 951.66 507.38 958.92&#10;  C 509.98 964.69 508.64 971.07 503.28 974.83&#10;  Z&#10;  M 495.1661 970.8899&#10;  A 4.86 3.94 90.4 0 0 499.1399 966.0575&#10;  A 4.86 3.94 90.4 0 0 495.2339 961.1701&#10;  A 4.86 3.94 90.4 0 0 491.2601 966.0025&#10;  A 4.86 3.94 90.4 0 0 495.1661 970.8899&#10;  Z&#10;  M 490.54 980.92&#10;  L 488.51 985.71&#10;  A 2.10 2.10 0.0 0 0 489.62 988.46&#10;  L 490.70 988.92&#10;  A 5.71 4.68 23.0 0 0 497.79 986.84&#10;  L 497.80 986.81&#10;  A 5.71 4.68 23.0 0 0 494.37 980.27&#10;  L 493.30 979.81&#10;  A 2.10 2.10 0.0 0 0 490.54 980.92&#10;  Z"/>
<path fill="#131835" d="&#10;  M 400.45 989.02&#10;  Q 405.72 988.66 411.27 988.86&#10;  A 0.69 0.69 0.0 0 1 411.94 989.62&#10;  L 411.28 997.27&#10;  Q 411.20 998.17 410.30 998.17&#10;  L 382.61 998.15&#10;  Q 382.20 998.15 382.23 997.74&#10;  L 382.87 990.32&#10;  A 2.41 2.39 -14.1 0 1 383.96 988.51&#10;  C 391.28 983.81 405.70 973.90 402.26 963.66&#10;  C 401.00 959.92 395.75 960.15 394.04 963.30&#10;  C 392.97 965.25 392.82 967.24 392.74 969.41&#10;  Q 392.70 970.35 391.76 970.34&#10;  L 384.45 970.33&#10;  Q 383.51 970.33 383.55 969.39&#10;  C 383.89 962.12 386.61 953.96 394.51 952.15&#10;  C 399.65 950.98 405.08 952.19 408.49 956.48&#10;  C 414.16 963.61 412.16 973.22 406.78 980.01&#10;  Q 403.69 983.90 399.72 987.19&#10;  Q 397.23 989.25 400.45 989.02&#10;  Z"/>
<path fill="#131835" d="&#10;  M 418.87 986.29&#10;  Q 416.68 975.05 420.43 963.44&#10;  C 422.43 957.24 426.82 952.28 433.64 951.93&#10;  Q 448.76 951.15 451.28 965.59&#10;  C 453.24 976.84 451.45 998.78 436.10 999.48&#10;  Q 421.58 1000.13 418.87 986.29&#10;  Z&#10;  M 435.90 989.40&#10;  C 442.02 987.89 441.70 968.61 440.25 964.34&#10;  C 439.14 961.06 434.48 960.67 432.33 962.83&#10;  C 428.74 966.45 428.64 978.21 429.00 982.62&#10;  C 429.35 987.02 430.68 990.68 435.90 989.40&#10;  Z"/>
<path fill="#131835" d="&#10;  M 241.49 962.04&#10;  L 242.32 953.61&#10;  A 1.02 1.02 0.0 0 1 243.33 952.69&#10;  L 251.81 952.66&#10;  A 1.02 1.02 0.0 0 1 252.83 953.78&#10;  L 251.99 962.22&#10;  A 1.02 1.02 0.0 0 1 250.98 963.14&#10;  L 242.51 963.16&#10;  A 1.02 1.02 0.0 0 1 241.49 962.04&#10;  Z"/>
<path fill="#131835" d="&#10;  M 459.98 987.75&#10;  L 461.79 965.66&#10;  A 0.55 0.55 0.0 0 0 461.16 965.07&#10;  L 457.52 965.63&#10;  A 0.79 0.78 -2.6 0 1 456.61 964.80&#10;  L 457.19 956.21&#10;  A 1.57 1.56 88.0 0 1 458.52 954.77&#10;  L 472.29 952.69&#10;  A 0.56 0.56 0.0 0 1 472.92 953.15&#10;  Q 472.99 953.58 472.96 954.01&#10;  Q 471.66 969.61 470.60 984.22&#10;  Q 470.46 986.02 470.56 987.99&#10;  A 0.75 0.74 87.3 0 0 471.33 988.70&#10;  L 475.07 988.57&#10;  Q 476.37 988.52 476.26 989.83&#10;  L 475.61 997.15&#10;  Q 475.51 998.25 474.41 998.25&#10;  L 455.30 998.28&#10;  Q 454.32 998.28 454.43 997.30&#10;  L 455.30 989.43&#10;  Q 455.42 988.39 456.45 988.55&#10;  Q 457.81 988.77 459.25 988.55&#10;  Q 459.92 988.45 459.98 987.75&#10;  Z"/>
<path fill="#131835" d="&#10;  M 270.21 968.62&#10;  Q 276.32 965.28 282.74 967.84&#10;  C 287.80 969.86 288.44 974.97 287.89 979.92&#10;  Q 286.87 989.16 286.30 997.77&#10;  A 0.61 0.60 2.0 0 1 285.69 998.33&#10;  L 276.74 998.20&#10;  A 0.97 0.97 0.0 0 1 275.79 997.12&#10;  Q 276.70 989.13 277.22 978.20&#10;  Q 277.44 973.61 273.00 973.93&#10;  C 269.94 974.15 268.27 975.60 268.04 978.72&#10;  Q 267.38 987.91 266.60 997.54&#10;  A 0.81 0.81 0.0 0 1 265.79 998.29&#10;  L 256.49 998.29&#10;  Q 255.94 998.29 255.99 997.74&#10;  L 258.59 968.73&#10;  A 1.25 1.25 0.0 0 1 259.81 967.59&#10;  L 267.51 967.52&#10;  Q 268.25 967.52 268.67 968.12&#10;  Q 269.02 968.62 269.60 968.72&#10;  Q 269.92 968.78 270.21 968.62&#10;  Z"/>
<path fill="#131835" d="&#10;  M 311.76 977.08&#10;  Q 309.22 976.33 307.65 977.81&#10;  Q 304.02 981.23 305.40 986.29&#10;  Q 306.24 989.35 309.10 989.02&#10;  C 310.96 988.81 311.92 987.51 312.76 986.02&#10;  A 1.28 1.28 0.0 0 1 313.86 985.36&#10;  L 323.49 985.35&#10;  Q 324.24 985.34 324.06 986.07&#10;  Q 320.31 1001.33 304.36 998.89&#10;  C 299.10 998.09 295.43 993.65 294.56 988.52&#10;  Q 292.95 979.09 299.23 972.31&#10;  C 307.83 963.03 324.19 965.07 324.92 979.80&#10;  Q 324.94 980.36 324.38 980.36&#10;  L 314.44 980.28&#10;  Q 313.82 980.27 313.56 979.72&#10;  L 312.71 977.89&#10;  Q 312.42 977.27 311.76 977.08&#10;  Z"/>
<path fill="#131835" d="&#10;  M 357.07 986.29&#10;  Q 357.05 986.17 357.02 986.05&#10;  Q 357.30 986.17 357.44 986.02&#10;  A 0.29 0.28 24.8 0 0 357.26 985.55&#10;  Q 357.01 985.52 356.93 985.79&#10;  Q 356.08 985.39 355.12 985.66&#10;  L 339.67 985.26&#10;  A 0.72 0.72 0.0 0 0 338.93 985.99&#10;  C 338.97 989.80 342.75 991.05 345.77 989.60&#10;  A 1.95 1.92 -86.9 0 0 346.59 988.85&#10;  Q 347.14 987.90 348.24 987.87&#10;  Q 352.45 987.76 357.04 987.45&#10;  A 0.89 0.89 0.0 0 1 357.97 988.53&#10;  Q 355.93 997.57 346.73 998.92&#10;  C 339.16 1000.04 331.41 998.69 329.33 990.28&#10;  Q 326.62 979.31 334.04 971.79&#10;  C 339.95 965.80 350.74 964.22 355.97 971.77&#10;  Q 358.87 975.96 358.81 981.47&#10;  C 358.78 983.41 359.15 984.64 357.84 986.35&#10;  Q 357.66 986.59 357.07 986.29&#10;  Z&#10;  M 340.90 979.12&#10;  L 347.91 978.86&#10;  A 0.17 0.17 0.0 0 0 348.08 978.68&#10;  L 348.07 978.57&#10;  A 3.53 3.24 -2.1 0 0 344.43 975.47&#10;  L 344.13 975.48&#10;  A 3.53 3.24 -2.1 0 0 340.72 978.84&#10;  L 340.72 978.95&#10;  A 0.17 0.17 0.0 0 0 340.90 979.12&#10;  Z"/>
<path fill="#131835" d="&#10;  M 238.13 997.56&#10;  L 240.58 968.29&#10;  A 0.72 0.72 0.0 0 1 241.30 967.63&#10;  L 250.66 967.57&#10;  A 0.72 0.72 0.0 0 1 251.38 968.35&#10;  L 248.93 997.61&#10;  A 0.72 0.72 0.0 0 1 248.22 998.27&#10;  L 238.85 998.34&#10;  A 0.72 0.72 0.0 0 1 238.13 997.56&#10;  Z"/>
<path fill="#14348b" d="&#10;  M 356.93 985.79&#10;  Q 356.97 985.92 357.02 986.05&#10;  Q 357.05 986.17 357.07 986.29&#10;  Q 354.89 987.32 355.12 985.66&#10;  Q 356.08 985.39 356.93 985.79&#10;  Z"/>
</svg>